<mxfile host="app.diagrams.net" modified="2023-07-25T13:15:22.222Z" agent="Mozilla/5.0 (X11; Linux x86_64) AppleWebKit/537.36 (KHTML, like Gecko) Chrome/115.0.0.0 Safari/537.36" etag="FC3LG_6Sj_fJQg51kJw8" version="21.6.5" type="github">
  <diagram name="Page-1" id="929967ad-93f9-6ef4-fab6-5d389245f69c">
    <mxGraphModel dx="806" dy="491" grid="1" gridSize="10" guides="1" tooltips="1" connect="1" arrows="1" fold="1" page="1" pageScale="1.5" pageWidth="1169" pageHeight="826" background="none" math="0" shadow="0">
      <root>
        <mxCell id="0" style=";html=1;" />
        <mxCell id="1" style=";html=1;" parent="0" />
        <mxCell id="1672d66443f91eb5-23" value="Diagrama do Projeto SCRUM" style="text;strokeColor=none;fillColor=none;html=1;fontSize=24;fontStyle=1;verticalAlign=middle;align=center;" parent="1" vertex="1">
          <mxGeometry x="120" y="40" width="1510" height="40" as="geometry" />
        </mxCell>
        <mxCell id="g43YezjUdcOCX8W5xUnA-20" value="&lt;font style=&quot;font-size: 24px;&quot;&gt;Tasks&lt;/font&gt;" style="swimlane;fontStyle=1;align=center;verticalAlign=top;childLayout=stackLayout;horizontal=1;startSize=40;horizontalStack=0;resizeParent=1;resizeParentMax=0;resizeLast=0;collapsible=1;marginBottom=0;whiteSpace=wrap;html=1;" parent="1" vertex="1">
          <mxGeometry x="80" y="160" width="320" height="180" as="geometry">
            <mxRectangle x="680" y="520" width="70" height="30" as="alternateBounds" />
          </mxGeometry>
        </mxCell>
        <mxCell id="g43YezjUdcOCX8W5xUnA-21" value="&lt;font style=&quot;font-size: 18px;&quot;&gt;- id: int&lt;br&gt;- nome: string&lt;br&gt;- dataCriacao: string&lt;br&gt;- dataEntrega: string&lt;br&gt;- prioridade: string&lt;br&gt;- status: enum&lt;br&gt;&lt;/font&gt;" style="text;strokeColor=none;fillColor=none;align=left;verticalAlign=top;spacingLeft=4;spacingRight=4;overflow=hidden;rotatable=0;points=[[0,0.5],[1,0.5]];portConstraint=eastwest;whiteSpace=wrap;html=1;" parent="g43YezjUdcOCX8W5xUnA-20" vertex="1">
          <mxGeometry y="40" width="320" height="140" as="geometry" />
        </mxCell>
        <mxCell id="g43YezjUdcOCX8W5xUnA-27" value="&lt;span style=&quot;font-size: 18px;&quot;&gt;StakeHolder&lt;/span&gt;" style="swimlane;fontStyle=1;align=center;verticalAlign=top;childLayout=stackLayout;horizontal=1;startSize=40;horizontalStack=0;resizeParent=1;resizeParentMax=0;resizeLast=0;collapsible=1;marginBottom=0;whiteSpace=wrap;html=1;" parent="1" vertex="1">
          <mxGeometry x="717" y="160" width="330" height="340" as="geometry" />
        </mxCell>
        <mxCell id="g43YezjUdcOCX8W5xUnA-28" value="&lt;span style=&quot;font-size: 18px;&quot;&gt;- nome: string&lt;br&gt;- projeto: string&lt;br&gt;- team: string&lt;br&gt;- ids: vector&lt;br&gt;&lt;/span&gt;" style="text;strokeColor=none;fillColor=none;align=left;verticalAlign=top;spacingLeft=4;spacingRight=4;overflow=hidden;rotatable=0;points=[[0,0.5],[1,0.5]];portConstraint=eastwest;whiteSpace=wrap;html=1;" parent="g43YezjUdcOCX8W5xUnA-27" vertex="1">
          <mxGeometry y="40" width="330" height="120" as="geometry" />
        </mxCell>
        <mxCell id="g43YezjUdcOCX8W5xUnA-29" value="" style="line;strokeWidth=1;fillColor=none;align=left;verticalAlign=middle;spacingTop=-1;spacingLeft=3;spacingRight=3;rotatable=0;labelPosition=right;points=[];portConstraint=eastwest;strokeColor=inherit;" parent="g43YezjUdcOCX8W5xUnA-27" vertex="1">
          <mxGeometry y="160" width="330" height="8" as="geometry" />
        </mxCell>
        <mxCell id="g43YezjUdcOCX8W5xUnA-30" value="&lt;font style=&quot;font-size: 18px;&quot;&gt;+ getters setters&lt;br&gt;+ cadastrarTarefa&lt;br&gt;+ listTasksTarefa&lt;br&gt;+ priorizarTarefas&lt;br&gt;+ executarTarefa&lt;br&gt;+ testarTarefa&lt;br&gt;+ aprovarTarefa&lt;br&gt;&lt;/font&gt;" style="text;strokeColor=none;fillColor=none;align=left;verticalAlign=top;spacingLeft=4;spacingRight=4;overflow=hidden;rotatable=0;points=[[0,0.5],[1,0.5]];portConstraint=eastwest;whiteSpace=wrap;html=1;" parent="g43YezjUdcOCX8W5xUnA-27" vertex="1">
          <mxGeometry y="168" width="330" height="172" as="geometry" />
        </mxCell>
        <mxCell id="g43YezjUdcOCX8W5xUnA-39" value="" style="endArrow=diamondThin;endFill=1;endSize=24;html=1;rounded=0;exitX=0.141;exitY=1.012;exitDx=0;exitDy=0;exitPerimeter=0;" parent="1" edge="1" source="g43YezjUdcOCX8W5xUnA-30">
          <mxGeometry width="160" relative="1" as="geometry">
            <mxPoint x="700" y="520" as="sourcePoint" />
            <mxPoint x="560" y="680" as="targetPoint" />
          </mxGeometry>
        </mxCell>
        <mxCell id="kHGSxO4OLZmnFPLA28h6-3" value="" style="rounded=0;whiteSpace=wrap;html=1;" parent="1" vertex="1">
          <mxGeometry x="80" y="340" width="320" height="60" as="geometry" />
        </mxCell>
        <mxCell id="kHGSxO4OLZmnFPLA28h6-4" value="&lt;font style=&quot;font-size: 18px;&quot;&gt;+ getters&lt;br&gt;+ setters&lt;br&gt;&lt;/font&gt;" style="text;strokeColor=none;fillColor=none;align=left;verticalAlign=top;spacingLeft=4;spacingRight=4;overflow=hidden;rotatable=0;points=[[0,0.5],[1,0.5]];portConstraint=eastwest;whiteSpace=wrap;html=1;" parent="1" vertex="1">
          <mxGeometry x="80" y="340" width="320" height="60" as="geometry" />
        </mxCell>
        <mxCell id="sYhx0zt6pdt36CqrpsWI-3" value="" style="line;strokeWidth=1;fillColor=none;align=left;verticalAlign=middle;spacingTop=-1;spacingLeft=3;spacingRight=3;rotatable=0;labelPosition=right;points=[];portConstraint=eastwest;strokeColor=inherit;" vertex="1" parent="1">
          <mxGeometry x="727" y="330" width="320" height="8" as="geometry" />
        </mxCell>
        <mxCell id="sYhx0zt6pdt36CqrpsWI-4" value="&lt;span style=&quot;font-size: 18px;&quot;&gt;Scrum Master&lt;/span&gt;" style="swimlane;fontStyle=1;align=center;verticalAlign=top;childLayout=stackLayout;horizontal=1;startSize=40;horizontalStack=0;resizeParent=1;resizeParentMax=0;resizeLast=0;collapsible=1;marginBottom=0;whiteSpace=wrap;html=1;" vertex="1" parent="1">
          <mxGeometry x="280" y="680" width="320" height="168" as="geometry" />
        </mxCell>
        <mxCell id="sYhx0zt6pdt36CqrpsWI-5" value="&lt;span style=&quot;font-size: 18px;&quot;&gt;+ cadastrar tarefas&lt;br&gt;+ listTasksByStatus (String aStatus)&lt;br&gt;&lt;/span&gt;" style="text;strokeColor=none;fillColor=none;align=left;verticalAlign=top;spacingLeft=4;spacingRight=4;overflow=hidden;rotatable=0;points=[[0,0.5],[1,0.5]];portConstraint=eastwest;whiteSpace=wrap;html=1;" vertex="1" parent="sYhx0zt6pdt36CqrpsWI-4">
          <mxGeometry y="40" width="320" height="120" as="geometry" />
        </mxCell>
        <mxCell id="sYhx0zt6pdt36CqrpsWI-6" value="" style="line;strokeWidth=1;fillColor=none;align=left;verticalAlign=middle;spacingTop=-1;spacingLeft=3;spacingRight=3;rotatable=0;labelPosition=right;points=[];portConstraint=eastwest;strokeColor=inherit;" vertex="1" parent="sYhx0zt6pdt36CqrpsWI-4">
          <mxGeometry y="160" width="320" height="8" as="geometry" />
        </mxCell>
        <mxCell id="sYhx0zt6pdt36CqrpsWI-8" value="&lt;span style=&quot;font-size: 18px;&quot;&gt;Product Owner&lt;/span&gt;" style="swimlane;fontStyle=1;align=center;verticalAlign=top;childLayout=stackLayout;horizontal=1;startSize=40;horizontalStack=0;resizeParent=1;resizeParentMax=0;resizeLast=0;collapsible=1;marginBottom=0;whiteSpace=wrap;html=1;" vertex="1" parent="1">
          <mxGeometry x="680" y="680" width="320" height="168" as="geometry" />
        </mxCell>
        <mxCell id="sYhx0zt6pdt36CqrpsWI-9" value="&lt;span style=&quot;font-size: 18px;&quot;&gt;+ priorizar tarefas&lt;br&gt;+ cadastrar tarefas&lt;br&gt;&lt;/span&gt;" style="text;strokeColor=none;fillColor=none;align=left;verticalAlign=top;spacingLeft=4;spacingRight=4;overflow=hidden;rotatable=0;points=[[0,0.5],[1,0.5]];portConstraint=eastwest;whiteSpace=wrap;html=1;" vertex="1" parent="sYhx0zt6pdt36CqrpsWI-8">
          <mxGeometry y="40" width="320" height="120" as="geometry" />
        </mxCell>
        <mxCell id="sYhx0zt6pdt36CqrpsWI-10" value="" style="line;strokeWidth=1;fillColor=none;align=left;verticalAlign=middle;spacingTop=-1;spacingLeft=3;spacingRight=3;rotatable=0;labelPosition=right;points=[];portConstraint=eastwest;strokeColor=inherit;" vertex="1" parent="sYhx0zt6pdt36CqrpsWI-8">
          <mxGeometry y="160" width="320" height="8" as="geometry" />
        </mxCell>
        <mxCell id="sYhx0zt6pdt36CqrpsWI-12" value="" style="endArrow=diamondThin;endFill=1;endSize=24;html=1;rounded=0;exitX=0.384;exitY=1.006;exitDx=0;exitDy=0;exitPerimeter=0;entryX=0.375;entryY=0;entryDx=0;entryDy=0;entryPerimeter=0;" edge="1" parent="1" source="g43YezjUdcOCX8W5xUnA-30" target="sYhx0zt6pdt36CqrpsWI-8">
          <mxGeometry width="160" relative="1" as="geometry">
            <mxPoint x="772" y="512" as="sourcePoint" />
            <mxPoint x="570" y="690" as="targetPoint" />
          </mxGeometry>
        </mxCell>
        <mxCell id="sYhx0zt6pdt36CqrpsWI-14" value="&lt;span style=&quot;font-size: 18px;&quot;&gt;Tester&lt;/span&gt;" style="swimlane;fontStyle=1;align=center;verticalAlign=top;childLayout=stackLayout;horizontal=1;startSize=40;horizontalStack=0;resizeParent=1;resizeParentMax=0;resizeLast=0;collapsible=1;marginBottom=0;whiteSpace=wrap;html=1;" vertex="1" parent="1">
          <mxGeometry x="1080" y="680" width="330" height="168" as="geometry" />
        </mxCell>
        <mxCell id="sYhx0zt6pdt36CqrpsWI-15" value="&lt;span style=&quot;font-size: 18px;&quot;&gt;+ executar tarefas&lt;br&gt;+ testar&lt;br&gt;+ aprovar&lt;br&gt;&lt;/span&gt;" style="text;strokeColor=none;fillColor=none;align=left;verticalAlign=top;spacingLeft=4;spacingRight=4;overflow=hidden;rotatable=0;points=[[0,0.5],[1,0.5]];portConstraint=eastwest;whiteSpace=wrap;html=1;" vertex="1" parent="sYhx0zt6pdt36CqrpsWI-14">
          <mxGeometry y="40" width="330" height="120" as="geometry" />
        </mxCell>
        <mxCell id="sYhx0zt6pdt36CqrpsWI-16" value="" style="line;strokeWidth=1;fillColor=none;align=left;verticalAlign=middle;spacingTop=-1;spacingLeft=3;spacingRight=3;rotatable=0;labelPosition=right;points=[];portConstraint=eastwest;strokeColor=inherit;" vertex="1" parent="sYhx0zt6pdt36CqrpsWI-14">
          <mxGeometry y="160" width="330" height="8" as="geometry" />
        </mxCell>
        <mxCell id="sYhx0zt6pdt36CqrpsWI-18" value="" style="endArrow=diamondThin;endFill=1;endSize=24;html=1;rounded=0;exitX=0.384;exitY=1.006;exitDx=0;exitDy=0;exitPerimeter=0;entryX=0.25;entryY=0;entryDx=0;entryDy=0;" edge="1" parent="1" target="sYhx0zt6pdt36CqrpsWI-14">
          <mxGeometry width="160" relative="1" as="geometry">
            <mxPoint x="921" y="501" as="sourcePoint" />
            <mxPoint x="877" y="680" as="targetPoint" />
          </mxGeometry>
        </mxCell>
        <mxCell id="sYhx0zt6pdt36CqrpsWI-19" value="&lt;span style=&quot;font-size: 18px;&quot;&gt;Developer&lt;/span&gt;" style="swimlane;fontStyle=1;align=center;verticalAlign=top;childLayout=stackLayout;horizontal=1;startSize=40;horizontalStack=0;resizeParent=1;resizeParentMax=0;resizeLast=0;collapsible=1;marginBottom=0;whiteSpace=wrap;html=1;" vertex="1" parent="1">
          <mxGeometry x="1160" y="160" width="330" height="168" as="geometry" />
        </mxCell>
        <mxCell id="sYhx0zt6pdt36CqrpsWI-20" value="&lt;span style=&quot;font-size: 18px;&quot;&gt;+ executar tarefas&lt;br&gt;&lt;/span&gt;" style="text;strokeColor=none;fillColor=none;align=left;verticalAlign=top;spacingLeft=4;spacingRight=4;overflow=hidden;rotatable=0;points=[[0,0.5],[1,0.5]];portConstraint=eastwest;whiteSpace=wrap;html=1;" vertex="1" parent="sYhx0zt6pdt36CqrpsWI-19">
          <mxGeometry y="40" width="330" height="120" as="geometry" />
        </mxCell>
        <mxCell id="sYhx0zt6pdt36CqrpsWI-21" value="" style="line;strokeWidth=1;fillColor=none;align=left;verticalAlign=middle;spacingTop=-1;spacingLeft=3;spacingRight=3;rotatable=0;labelPosition=right;points=[];portConstraint=eastwest;strokeColor=inherit;" vertex="1" parent="sYhx0zt6pdt36CqrpsWI-19">
          <mxGeometry y="160" width="330" height="8" as="geometry" />
        </mxCell>
        <mxCell id="sYhx0zt6pdt36CqrpsWI-23" value="" style="endArrow=diamondThin;endFill=1;endSize=24;html=1;rounded=0;exitX=1;exitY=0.65;exitDx=0;exitDy=0;exitPerimeter=0;" edge="1" parent="1" source="g43YezjUdcOCX8W5xUnA-28" target="sYhx0zt6pdt36CqrpsWI-20">
          <mxGeometry width="160" relative="1" as="geometry">
            <mxPoint x="1040" y="380" as="sourcePoint" />
            <mxPoint x="1282" y="559" as="targetPoint" />
          </mxGeometry>
        </mxCell>
      </root>
    </mxGraphModel>
  </diagram>
</mxfile>
